<?xml version="1.0" encoding="utf-8"?>
<!-- Generator: Adobe Illustrator 17.1.0, SVG Export Plug-In . SVG Version: 6.00 Build 0)  -->
<!DOCTYPE svg PUBLIC "-//W3C//DTD SVG 1.1//EN" "http://www.w3.org/Graphics/SVG/1.1/DTD/svg11.dtd">
<svg version="1.1" id="Layer_1" xmlns="http://www.w3.org/2000/svg" xmlns:xlink="http://www.w3.org/1999/xlink" x="0px" y="0px"
	 viewBox="0 0 95.8 105.8" enable-background="new 0 0 95.8 105.8" xml:space="preserve">
<g opacity="0.3">
	<linearGradient id="SVGID_1_" gradientUnits="userSpaceOnUse" x1="0" y1="52.9066" x2="95.809" y2="52.9066">
		<stop  offset="0" style="stop-color:#9A9A9A"/>
		<stop  offset="1" style="stop-color:#505050"/>
	</linearGradient>
	<path fill="url(#SVGID_1_)" d="M0.6,51.5c-1-4.4-0.9-12.9,2.2-16.2c8.3-8.8,12.5-4.8,20.8-13.6c8.3-8.8,5.7-11.2,14-20
		c3.1-3.3,7.6-1.3,11.1,1.6c11.2,9.4,15,4.9,26.1,14.3C86,27,82,31.7,93.2,41.1c3.5,2.9,3.5,3.8-0.1,6.5c-12.2,8.9-9.3,13-21.5,21.9
		c-12.2,8.9-14.8,5.3-27.1,14.2c-12.2,8.9-9.7,12.4-21.9,21.3c-3.7,2.7-6.9-1.6-7.9-6c-2.8-12-3.5-11.9-6.5-23.9
		C5.1,63.1,3.4,63.6,0.6,51.5z"/>
</g>
<g opacity="0.2">
	<linearGradient id="SVGID_2_" gradientUnits="userSpaceOnUse" x1="2.2429" y1="55.0573" x2="93.4669" y2="55.0573">
		<stop  offset="0" style="stop-color:#9A9A9A"/>
		<stop  offset="1" style="stop-color:#505050"/>
	</linearGradient>
	<path fill="url(#SVGID_2_)" d="M3.3,54.6c-1.2-4.4-1.8-11.7,0.3-15.8c7-13.7,4.9-14.8,11.9-28.4c2.1-4,8.8-1,12.8,1
		C43.4,19.2,44,18,59.1,25.7c15.1,7.7,17.4,3.2,32.4,10.9c4,2.1,1.1,6-2.6,8.7c-11.3,8.3-11.1,8.6-22.5,17c-11.3,8.3-8.6,12-20,20.3
		c-11.3,8.3-10.3,9.8-21.6,18.1c-3.6,2.7-12.8-0.7-14-5C5.6,75.6,8.8,74.7,3.3,54.6z"/>
</g>
<g opacity="0.4">
	
		<linearGradient id="SVGID_3_" gradientUnits="userSpaceOnUse" x1="32.3474" y1="-27.3416" x2="110.7453" y2="-27.3416" gradientTransform="matrix(0.9923 -0.1235 0.1235 0.9923 -23.2215 97.2413)">
		<stop  offset="0" style="stop-color:#9A9A9A"/>
		<stop  offset="1" style="stop-color:#505050"/>
	</linearGradient>
	<path fill="url(#SVGID_3_)" d="M19.3,100.8c-3.3,3.1-7.7,3.5-8.7-0.9C6.5,80.5,9.1,80,5,60.6C4,56.1,3.3,48.7,5.9,45
		c6.6-9.3,10-6.9,16.6-16.1c2.6-3.7,5.3-4.6,9.6-3.1c11.2,4,11.2,3.8,22.4,7.8c11.2,4,12.3,0.7,23.5,4.7c4.3,1.5,4.9,6.6,1.6,9.7
		c-9.8,9-9.5,9.3-19.4,18.4c-9.8,9-10.4,8.4-20.5,17.1C29.4,92.1,29.1,91.8,19.3,100.8z"/>
</g>
<g>
	<path fill="#FFFFFF" d="M24.2,36.3h13.2c4.3,0,7.2,1.1,9.1,3c1.6,1.6,2.5,3.7,2.5,6.5v0.1c0,4.3-2.3,7.1-5.7,8.6l6.7,9.7h-8.9
		l-5.6-8.4h-3.4v8.4h-7.7V36.3z M37,49.6c2.6,0,4.1-1.3,4.1-3.3v-0.1c0-2.2-1.6-3.3-4.2-3.3h-5.1v6.7H37z"/>
</g>
</svg>
